# xmcd
#
# Track frame offsets:
#	150
#	11625
#	24075
#	35925
#	47925
#	64850
#	75000
#	82575
#	96375
#	105525
#	116175
#	128025
#
# Disc length: 1897 seconds
#
# Revision: 0
# Processed by: cddbd v1.5.1PL2 Copyright (c) Steve Scherf et al.
# Submitted via: audiograbber 1.83.01
#
DISCID=8d07670c
DTITLE=DIONISIS SAVVOPOULOS - PRIN TO FORTIGO
DYEAR=1996
DGENRE=GREEK
TTITLE0=Egertirio - SAVVOPOULOS
TTITLE1=Mia thalassa mikri - SAVVOPOULOS
TTITLE2=Ta poulia tis distihias - SAVVOPOULOS
TTITLE3=Mi milas allo gi' agapi - SAVVOPOULOS
TTITLE4=To dentro - SAVVOPOULOS
TTITLE5=H synnefoula - SAVVOPOULOS
TTITLE6=H Zwzw - SAVVOPOULOS
TTITLE7=Ta koritsia pou pigainoun dyo dyo - SAVVOPOULOS
TTITLE8=Oi dekapente - SAVVOPOULOS
TTITLE9=Ti na ta kanw ta tragoudia sas - SAVVOPOULOS
TTITLE10=Oi palioi mas filoi - SAVVOPOULOS
TTITLE11=Vietnam gie gie - SAVVOPOULOS
EXTD=
EXTT0=
EXTT1=
EXTT2=
EXTT3=
EXTT4=
EXTT5=
EXTT6=
EXTT7=
EXTT8=
EXTT9=
EXTT10=
EXTT11=
PLAYORDER=
